# xmcd
#
# Track frame offsets:
#	151
#	21559
#	42515
#	65722
#	85733
#	102264
#	119471
#	139940
#	153648
#	168248
#
# Disc length: 2629 seconds
#
# Revision: 0
# Processed by: cddbd v1.5PL3 Copyright (c) Steve Scherf et al.
# Submitted via: dBpowerAMP V4.0
#
DISCID=8d0a430a
DTITLE=Taxi - Keep Looking
DYEAR=2004
DGENRE=Blues
TTITLE0=Better Man
TTITLE1=Early Mornings
TTITLE2=Keep Looking
TTITLE3=Get Away
TTITLE4=Something by Jimi
TTITLE5=Eastern Edge of the Western World
TTITLE6=It's Plain to See
TTITLE7=Long Distance
TTITLE8=It Don't Bother Me
TTITLE9=I'm Not Moving On
EXTD=
EXTT0=
EXTT1=
EXTT2=
EXTT3=
EXTT4=
EXTT5=
EXTT6=
EXTT7=
EXTT8=
EXTT9=
PLAYORDER=
